<svg width="17" height="12" viewBox="0 0 17 12" fill="none" xmlns="http://www.w3.org/2000/svg">
<path d="M13.416 10.417C13.7686 10.4157 14.1062 10.2746 14.355 10.0247C14.6037 9.77487 14.7433 9.43657 14.743 9.08399L14.75 1.75099C14.7492 1.39744 14.6084 1.05859 14.3584 0.808587C14.1084 0.558585 13.7696 0.417785 13.416 0.416992L2.75 0.416992C2.39662 0.417784 2.05792 0.558447 1.80795 0.808233C1.55797 1.05802 1.41706 1.39661 1.416 1.74999V9.08399C1.41706 9.43737 1.55797 9.77597 1.80795 10.0258C2.05792 10.2755 2.39662 10.4162 2.75 10.417H0.0830002C0.0840553 10.7702 0.224835 11.1086 0.474592 11.3584C0.72435 11.6082 1.06279 11.7489 1.416 11.75H14.75C15.1032 11.7489 15.4417 11.6082 15.6914 11.3584C15.9412 11.1086 16.0819 10.7702 16.083 10.417H13.416ZM2.75 1.74999H13.416V9.08399H2.75V1.74999ZM8.083 11.084C7.95108 11.084 7.82212 11.0449 7.71243 10.9716C7.60275 10.8983 7.51726 10.7941 7.46677 10.6722C7.41629 10.5504 7.40308 10.4163 7.42882 10.2869C7.45455 10.1575 7.51808 10.0386 7.61136 9.94535C7.70464 9.85207 7.82349 9.78855 7.95288 9.76281C8.08226 9.73707 8.21637 9.75028 8.33825 9.80076C8.46013 9.85125 8.5643 9.93674 8.63759 10.0464C8.71088 10.1561 8.75 10.2851 8.75 10.417C8.74947 10.5937 8.67903 10.7631 8.55406 10.8881C8.42909 11.013 8.25974 11.0835 8.083 11.084Z" fill="#571B97"/>
</svg>
