<svg width="16" height="12" viewBox="0 0 16 12" fill="none" xmlns="http://www.w3.org/2000/svg">
<path d="M14.857 0H1.143C0.839858 0 0.549131 0.120423 0.334777 0.334777C0.120423 0.549131 0 0.839858 0 1.143L0 10.286C0 10.5891 0.120423 10.8799 0.334777 11.0942C0.549131 11.3086 0.839858 11.429 1.143 11.429H14.857C15.1601 11.429 15.4509 11.3086 15.6652 11.0942C15.8796 10.8799 16 10.5891 16 10.286V1.143C16 0.839858 15.8796 0.549131 15.6652 0.334777C15.4509 0.120423 15.1601 0 14.857 0V0ZM13.6 1.143L8 5.017L2.4 1.143H13.6ZM1.143 10.286V1.663L7.674 6.183C7.76959 6.24932 7.88316 6.28486 7.9995 6.28486C8.11584 6.28486 8.22941 6.24932 8.325 6.183L14.856 1.663V10.286H1.143Z" fill="#5C229A"/>
</svg>
