<svg width="15" height="15" viewBox="0 0 15 15" fill="none" xmlns="http://www.w3.org/2000/svg">
<path d="M13.749 6.78601L7.374 0.411012C7.24262 0.279995 7.08664 0.176237 6.91502 0.105703C6.74341 0.0351691 6.55954 -0.00074948 6.374 1.18541e-05H1.417C1.04151 0.00106734 0.681708 0.150697 0.416198 0.416208C0.150687 0.681718 0.00105738 1.04152 1.89508e-06 1.41701V6.37501C-0.000304238 6.56201 0.0364823 6.7472 0.108232 6.91988C0.179982 7.09256 0.28527 7.2493 0.418002 7.38101L6.793 13.756C6.92438 13.887 7.08037 13.9908 7.25198 14.0613C7.4236 14.1319 7.60746 14.1678 7.793 14.167C7.97923 14.1681 8.16377 14.1317 8.33559 14.0599C8.50741 13.9881 8.66298 13.8823 8.793 13.749L13.749 8.79001C13.8823 8.65999 13.9881 8.50442 14.0599 8.3326C14.1317 8.16078 14.1681 7.97624 14.167 7.79001C14.1652 7.41338 14.015 7.05263 13.749 6.78601ZM7.792 12.757L1.417 6.37501V1.41701H6.375V1.41001L12.75 7.78501L7.792 12.757Z" fill="#571B97"/>
<path d="M3.187 4.24998C3.397 4.24998 3.60229 4.18772 3.77691 4.07107C3.95153 3.95442 4.08765 3.78861 4.16806 3.59462C4.24847 3.40062 4.26956 3.18714 4.22867 2.98116C4.18777 2.77518 4.08672 2.58595 3.9383 2.43738C3.78988 2.28882 3.60074 2.1876 3.3948 2.14651C3.18886 2.10541 2.97535 2.1263 2.78128 2.20653C2.58721 2.28676 2.42128 2.42272 2.30447 2.59723C2.18765 2.77175 2.1252 2.97698 2.125 3.18698C2.125 3.46873 2.23686 3.73896 2.43599 3.93828C2.63513 4.1376 2.90525 4.24971 3.187 4.24998Z" fill="#571B97"/>
</svg>
