<svg width="14" height="16" viewBox="0 0 14 16" fill="none" xmlns="http://www.w3.org/2000/svg">
<path fill-rule="evenodd" clip-rule="evenodd" d="M2.206 16C1.62093 16 1.05983 15.7676 0.646122 15.3539C0.232417 14.9402 0 14.3791 0 13.794L0 6.44C0 6.415 0 6.39 0 6.366C0.000196402 5.94222 0.168508 5.53583 0.468 5.236L5.059 0.646004C5.47267 0.23253 6.03362 0.000259399 6.6185 0.000259399C7.20338 0.000259399 7.76433 0.23253 8.178 0.646004L12.77 5.237C13.0692 5.53658 13.2375 5.94257 13.238 6.366C13.238 6.39 13.238 6.415 13.238 6.44V13.794C13.238 14.0838 13.1809 14.3707 13.07 14.6384C12.9591 14.9061 12.7965 15.1494 12.5915 15.3542C12.3866 15.5591 12.1433 15.7216 11.8755 15.8324C11.6077 15.9432 11.3208 16.0001 11.031 16H2.206ZM7.138 1.686L11.766 6.314V13.795C11.766 13.9899 11.6886 14.1769 11.5507 14.3147C11.4129 14.4526 11.2259 14.53 11.031 14.53H8.825V10.853C8.825 10.5633 8.76794 10.2764 8.65708 10.0088C8.54622 9.74116 8.38372 9.49797 8.17888 9.29313C7.97403 9.08828 7.73084 8.92579 7.4632 8.81493C7.19556 8.70406 6.9087 8.64701 6.619 8.64701C6.3293 8.64701 6.04244 8.70406 5.7748 8.81493C5.50716 8.92579 5.26397 9.08828 5.05912 9.29313C4.85428 9.49797 4.69178 9.74116 4.58092 10.0088C4.47006 10.2764 4.413 10.5633 4.413 10.853V14.53H2.206C2.01107 14.53 1.82412 14.4526 1.68628 14.3147C1.54844 14.1769 1.471 13.9899 1.471 13.795V6.314L6.1 1.686C6.16826 1.61767 6.24932 1.56346 6.33855 1.52647C6.42777 1.48949 6.52341 1.47045 6.62 1.47045C6.71659 1.47045 6.81223 1.48949 6.90145 1.52647C6.99068 1.56346 7.07174 1.61767 7.14 1.686H7.138Z" fill="#571B97"/>
</svg>
