<svg width="26" height="29" viewBox="0 0 26 29" fill="none" xmlns="http://www.w3.org/2000/svg">
<path d="M15.306 26.375C15.0715 26.7789 14.735 27.1142 14.3302 27.3473C13.9255 27.5803 13.4666 27.703 12.9995 27.703C12.5324 27.703 12.0735 27.5803 11.6688 27.3473C11.264 27.1142 10.9275 26.7789 10.693 26.375M21 9.04199C21 6.92026 20.1571 4.88543 18.6569 3.38514C17.1566 1.88485 15.1217 1.04199 13 1.04199C10.8783 1.04199 8.84344 1.88485 7.34315 3.38514C5.84285 4.88543 5 6.92026 5 9.04199C5 18.375 1 21.042 1 21.042H25C25 21.042 21 18.375 21 9.04199Z" stroke="#2D2D2B" stroke-width="2" stroke-linecap="round" stroke-linejoin="round"/>
</svg>
